<svg xmlns:xlink="http://www.w3.org/1999/xlink" xmlns="http://www.w3.org/2000/svg" width="300" height="31.336354573965725" viewBox="0 0 370.12820512820514 38.661562245743184" class="css-1j8o68f"><defs id="SvgjsDefs1617"></defs><g id="SvgjsG1618" featurekey="MI9fam-0" transform="matrix(0.5265951487568851,0,0,0.5265951487568851,-3.894077454663082,-6.998976314972663)" fill="#FFFFFF"><path xmlns="http://www.w3.org/2000/svg" d="M55.896,13.291c-17.979,0-32.97,12.996-36.099,30.085C9.693,52.243,5.467,60.502,8.216,66.067  c1.919,3.884,6.927,5.838,14.053,5.838c1.275,0,2.637-0.081,4.043-0.206c6.688,9.094,17.456,15.01,29.585,15.01  c20.241,0,36.709-16.468,36.709-36.709S76.138,13.291,55.896,13.291z M81.501,26.594c-2.583,1.1-5.547,2.022-8.808,2.729  c-2.171-5.789-5.231-10.341-8.816-13.096C70.767,17.855,76.872,21.535,81.501,26.594z M56.824,15.341  c5.605,0.555,10.659,6.107,13.85,14.391c-4.299,0.794-9.004,1.236-13.85,1.287V15.341z M47.994,16.209  c-3.601,2.768-6.675,7.35-8.858,13.127c-3.274-0.708-6.248-1.638-8.843-2.743C34.938,21.516,41.072,17.828,47.994,16.209z   M54.824,15.356v15.66c-4.822-0.058-9.494-0.501-13.761-1.291C44.192,21.507,49.166,15.98,54.824,15.356z M21.231,48.251  c0.379-7.582,3.205-14.526,7.697-20.069c2.772,1.237,5.989,2.269,9.537,3.05c-1.659,5.026-2.675,10.823-2.837,17.02H21.231z   M38.042,67.477c-3.866,1.031-7.501,1.731-10.793,2.093c-3.776-5.511-6.004-12.16-6.056-19.318h14.414  C35.631,56.481,36.51,62.345,38.042,67.477z M10.009,65.181c-2.099-4.248,1.473-11.29,9.352-18.704  c-0.111,1.16-0.173,2.335-0.173,3.523c0,7.274,2.136,14.055,5.8,19.766C17.278,70.269,11.769,68.743,10.009,65.181z M28.633,71.441  c3.098-0.406,6.452-1.088,10.024-2.054c2.182,6.357,5.408,11.415,9.265,14.387C40.168,81.943,33.414,77.508,28.633,71.441z   M56.824,84.686v-8.102c-0.345,0.446-0.782,0.825-1.299,1.097l-0.701,0.369v6.589c-5.908-0.675-11.112-6.869-14.213-15.805  c1.08-0.316,2.176-0.656,3.289-1.021l0.441,0.84c0.176,0.334,0.521,0.534,0.885,0.534c0.081,0,0.163-0.01,0.245-0.03l2.435-0.615  l3.563,6.756c0.18,0.34,0.526,0.533,0.886,0.533c0.157,0,0.316-0.037,0.465-0.115l1.308-0.688c0.327-0.172,0.532-0.511,0.534-0.881  l0.031-7.334c0.825-0.239,1.57-0.537,2.352-0.948l2.982-1.569l3.39,15.982c0.065,0.307,0.271,0.565,0.554,0.698  c0.135,0.063,0.28,0.095,0.425,0.095c0.16,0,0.32-0.038,0.466-0.115l4.063-2.139c0.291-0.153,0.487-0.438,0.527-0.766l2.408-19.982  l3.538-1.862c1.209-0.636,2.562-1.966,3.618-3.557c0.849-1.278,1.731-3.046,1.116-4.213c-0.639-1.213-2.579-1.468-4.095-1.468  c-1.521,0-3.674,0.277-5.156,1.058L67.511,49.8l-17.835-9.332c-0.291-0.152-0.639-0.152-0.93,0.001l-4.063,2.138  c-0.277,0.146-0.47,0.413-0.521,0.722c-0.052,0.31,0.046,0.625,0.262,0.852l11.254,11.847l-2.982,1.569  c-0.794,0.418-1.47,0.871-2.146,1.428l-5.99-4.078c-0.305-0.208-0.701-0.23-1.027-0.06l-1.309,0.688  c-0.489,0.257-0.678,0.861-0.421,1.351l3.512,6.688l-1.887,1.658c-0.21,0.185-0.313,0.443-0.325,0.709  c-1.047,0.34-2.081,0.658-3.101,0.954c-1.498-4.975-2.37-10.674-2.394-16.682h8.445l-1.9-2h-6.524  c0.16-6.083,1.152-11.755,2.76-16.623c4.477,0.851,9.38,1.329,14.437,1.389v6.759l2,1.047v-7.804  c5.084-0.053,10.025-0.531,14.537-1.386c1.251,3.74,2.134,7.959,2.551,12.472c0.656-0.081,1.326-0.128,1.998-0.133  c-0.418-4.616-1.299-8.917-2.553-12.75c3.536-0.78,6.75-1.805,9.51-3.035c4.491,5.541,7.316,12.484,7.694,20.064h-7.35  c0.138,0.63,0.161,1.295,0.049,2H90.6c-0.061,8.444-3.153,16.178-8.239,22.172c-2.587-1.106-5.58-2.058-8.872-2.793l-0.24,1.993  c2.828,0.642,5.418,1.444,7.695,2.368C74.821,80.38,66.291,84.436,56.824,84.686z M57.517,55.059L46.784,43.761l2.429-1.278  l16.146,8.449L57.517,55.059z M71.813,49.795c0.94-0.494,2.639-0.827,4.225-0.827c1.36,0,2.099,0.247,2.305,0.396  c0.026,0.903-1.948,4.059-3.876,5.072l-3.997,2.104c-0.002,0.001-0.004,0.001-0.006,0.002l-10.198,5.367  c-0.001,0-0.001,0.001-0.002,0.001l-4.15,2.185c-0.791,0.417-1.502,0.688-2.375,0.91l-7.692,1.944l-0.354-1.008l5.838-5.132  c0.677-0.595,1.304-1.026,2.096-1.442L71.813,49.795z M69.709,59.199l-2.18,18.091l-2.43,1.278l-3.232-15.243L69.709,59.199z   M52.691,67.332l-0.025,5.944l-2.764-5.239L52.691,67.332z M46.859,62.252l-2.715-5.17l4.844,3.298L46.859,62.252z" fill="#FFFFFF"></path></g><g id="SvgjsG1619" featurekey="EI8VXn-0" transform="matrix(1.4524382360584538,0,0,1.4524382360584538,63.2570723160309,0.5468092168122514)" fill="#FFFFFF"><path d="M5.28 6.140000000000001 q0.36 0.66 0.83 1.63 t0.98 2.1 t1.01 2.31 t0.94 2.22 q0.44 -1.04 0.94 -2.22 t1.01 -2.31 t0.98 -2.1 t0.83 -1.63 l2.84 0 q0.2 1.38 0.37 3.09 t0.3 3.56 t0.24 3.71 t0.19 3.5 l-3.04 0 q-0.06 -2.02 -0.16 -4.4 t-0.3 -4.8 q-0.36 0.84 -0.8 1.86 t-0.87 2.04 t-0.83 1.95 t-0.68 1.59 l-2.18 0 q-0.28 -0.66 -0.68 -1.59 t-0.83 -1.95 t-0.87 -2.04 t-0.8 -1.86 q-0.2 2.42 -0.3 4.8 t-0.16 4.4 l-3.04 0 q0.08 -1.64 0.19 -3.5 t0.24 -3.71 t0.3 -3.56 t0.37 -3.09 l2.98 0 z M28.82 20 q-0.22 -0.72 -0.49 -1.48 t-0.53 -1.52 l-5.4 0 q-0.26 0.76 -0.53 1.52 t-0.49 1.48 l-3.24 0 q0.78 -2.24 1.48 -4.14 t1.37 -3.58 t1.32 -3.19 t1.35 -2.95 l2.98 0 q0.68 1.44 1.34 2.95 t1.33 3.19 t1.37 3.58 t1.48 4.14 l-3.34 0 z M25.080000000000002 9.28 q-0.1 0.3 -0.3 0.82 t-0.46 1.2 t-0.57 1.5 t-0.63 1.72 l3.94 0 q-0.32 -0.9 -0.62 -1.72 t-0.57 -1.5 t-0.47 -1.2 t-0.32 -0.82 z M41.54 15.34 q0 1.02 -0.23 1.92 t-0.8 1.57 t-1.54 1.06 t-2.45 0.39 q-1.36 0 -2.34 -0.33 t-1.62 -0.77 l1.04 -2.42 q0.58 0.34 1.24 0.6 t1.44 0.26 q1.14 0 1.64 -0.56 t0.5 -1.88 l0 -9.04 l3.12 0 l0 9.2 z M44.54 20 l0 -13.86 l9.36 0 l0 2.62 l-6.24 0 l0 2.72 l5.54 0 l0 2.56 l-5.54 0 l0 3.34 l6.7 0 l0 2.62 l-9.82 0 z M60.440000000000005 17.62 q0.66 0 1.09 -0.11 t0.69 -0.3 t0.36 -0.45 t0.1 -0.58 q0 -0.68 -0.64 -1.13 t-2.2 -0.97 q-0.68 -0.24 -1.36 -0.55 t-1.22 -0.78 t-0.88 -1.14 t-0.34 -1.63 t0.36 -1.73 t1.02 -1.31 t1.6 -0.83 t2.12 -0.29 q1.4 0 2.42 0.3 t1.68 0.66 l-0.9 2.46 q-0.58 -0.3 -1.29 -0.53 t-1.71 -0.23 q-1.12 0 -1.61 0.31 t-0.49 0.95 q0 0.38 0.18 0.64 t0.51 0.47 t0.76 0.38 t0.95 0.35 q1.08 0.4 1.88 0.79 t1.33 0.91 t0.79 1.22 t0.26 1.7 q0 1.94 -1.36 3.01 t-4.1 1.07 q-0.92 0 -1.66 -0.11 t-1.31 -0.27 t-0.98 -0.34 t-0.69 -0.34 l0.88 -2.48 q0.62 0.34 1.53 0.61 t2.23 0.27 z M78.58 6.140000000000001 l0 2.66 l-4.18 0 l0 11.2 l-3.12 0 l0 -11.2 l-4.18 0 l0 -2.66 l11.48 0 z M80.58 6.140000000000001 l3.12 0 l0 13.86 l-3.12 0 l0 -13.86 z M93.22000000000001 20.28 q-3.38 0 -5.15 -1.88 t-1.77 -5.34 q0 -1.72 0.54 -3.07 t1.48 -2.28 t2.24 -1.41 t2.82 -0.48 q0.88 0 1.6 0.13 t1.26 0.3 t0.9 0.35 t0.52 0.28 l-0.9 2.52 q-0.64 -0.34 -1.49 -0.58 t-1.93 -0.24 q-0.72 0 -1.41 0.24 t-1.22 0.77 t-0.85 1.37 t-0.32 2.04 q0 0.96 0.21 1.79 t0.68 1.43 t1.23 0.95 t1.84 0.35 q0.68 0 1.22 -0.08 t0.96 -0.19 t0.74 -0.25 t0.58 -0.26 l0.86 2.5 q-0.66 0.4 -1.86 0.72 t-2.78 0.32 z M108.78000000000002 20 q-0.82 -1.74 -1.62 -3.62 t-1.52 -3.72 t-1.33 -3.52 t-1.05 -3 l3.44 0 q0.4 1.2 0.87 2.59 t0.96 2.77 t0.95 2.64 t0.86 2.18 q0.38 -0.92 0.85 -2.18 t0.96 -2.64 t0.96 -2.77 t0.87 -2.59 l3.32 0 q-0.46 1.32 -1.06 3 t-1.32 3.52 t-1.52 3.72 t-1.62 3.62 l-3 0 z M121.72000000000001 13.059999999999999 q0 1.02 0.25 1.84 t0.72 1.41 t1.15 0.91 t1.56 0.32 q0.86 0 1.55 -0.32 t1.16 -0.91 t0.72 -1.41 t0.25 -1.84 t-0.25 -1.85 t-0.72 -1.42 t-1.16 -0.91 t-1.55 -0.32 q-0.88 0 -1.56 0.33 t-1.15 0.92 t-0.72 1.42 t-0.25 1.83 z M132.3 13.059999999999999 q0 1.78 -0.53 3.13 t-1.45 2.26 t-2.19 1.37 t-2.73 0.46 q-1.42 0 -2.68 -0.46 t-2.2 -1.37 t-1.48 -2.26 t-0.54 -3.13 t0.56 -3.13 t1.51 -2.27 t2.2 -1.38 t2.63 -0.46 q1.42 0 2.68 0.46 t2.2 1.38 t1.48 2.27 t0.54 3.13 z M139.98000000000002 11.84 q0.84 -1.42 1.6 -2.84 t1.4 -2.86 l3.44 0 q-1.14 2.24 -2.36 4.34 t-2.58 4.22 l0 5.3 l-3.12 0 l0 -5.26 q-1.36 -2.12 -2.59 -4.24 t-2.37 -4.36 l3.62 0 q0.64 1.44 1.38 2.86 t1.58 2.84 z M157.4 20 q-0.22 -0.72 -0.49 -1.48 t-0.53 -1.52 l-5.4 0 q-0.26 0.76 -0.53 1.52 t-0.49 1.48 l-3.24 0 q0.78 -2.24 1.48 -4.14 t1.37 -3.58 t1.32 -3.19 t1.35 -2.95 l2.98 0 q0.68 1.44 1.34 2.95 t1.33 3.19 t1.37 3.58 t1.48 4.14 l-3.34 0 z M153.66 9.28 q-0.1 0.3 -0.3 0.82 t-0.46 1.2 t-0.57 1.5 t-0.63 1.72 l3.94 0 q-0.32 -0.9 -0.62 -1.72 t-0.57 -1.5 t-0.47 -1.2 t-0.32 -0.82 z M169.3 8.54 q-2.18 0 -3.15 1.21 t-0.97 3.31 q0 1.02 0.24 1.85 t0.72 1.43 t1.2 0.93 t1.68 0.33 q0.52 0 0.89 -0.02 t0.65 -0.08 l0 -4.82 l3.12 0 l0 6.86 q-0.56 0.22 -1.8 0.47 t-3.06 0.25 q-1.56 0 -2.83 -0.48 t-2.17 -1.4 t-1.39 -2.26 t-0.49 -3.06 q0 -1.74 0.54 -3.08 t1.48 -2.27 t2.21 -1.41 t2.71 -0.48 q0.98 0 1.77 0.13 t1.36 0.3 t0.94 0.35 t0.53 0.28 l-0.9 2.5 q-0.64 -0.34 -1.47 -0.59 t-1.81 -0.25 z M176.57999999999998 20 l0 -13.86 l9.36 0 l0 2.62 l-6.24 0 l0 2.72 l5.54 0 l0 2.56 l-5.54 0 l0 3.34 l6.7 0 l0 2.62 l-9.82 0 z M192.76 5.98 q3.12 0 4.78 1.11 t1.66 3.45 q0 1.46 -0.67 2.37 t-1.93 1.43 q0.42 0.52 0.88 1.19 t0.91 1.4 t0.87 1.52 t0.78 1.55 l-3.5 0 q-0.38 -0.68 -0.77 -1.38 t-0.8 -1.36 t-0.81 -1.25 t-0.8 -1.07 l-1.54 0 l0 5.06 l-3.12 0 l0 -13.66 q1.02 -0.2 2.11 -0.28 t1.95 -0.08 z M192.94 8.64 q-0.34 0 -0.61 0.02 t-0.51 0.04 l0 3.76 l0.88 0 q1.76 0 2.52 -0.44 t0.76 -1.5 q0 -1.02 -0.77 -1.45 t-2.27 -0.43 z M205.82 17.62 q0.66 0 1.09 -0.11 t0.69 -0.3 t0.36 -0.45 t0.1 -0.58 q0 -0.68 -0.64 -1.13 t-2.2 -0.97 q-0.68 -0.24 -1.36 -0.55 t-1.22 -0.78 t-0.88 -1.14 t-0.34 -1.63 t0.36 -1.73 t1.02 -1.31 t1.6 -0.83 t2.12 -0.29 q1.4 0 2.42 0.3 t1.68 0.66 l-0.9 2.46 q-0.58 -0.3 -1.29 -0.53 t-1.71 -0.23 q-1.12 0 -1.61 0.31 t-0.49 0.95 q0 0.38 0.18 0.64 t0.51 0.47 t0.76 0.38 t0.95 0.35 q1.08 0.4 1.88 0.79 t1.33 0.91 t0.79 1.22 t0.26 1.7 q0 1.94 -1.36 3.01 t-4.1 1.07 q-0.92 0 -1.66 -0.11 t-1.31 -0.27 t-0.98 -0.34 t-0.69 -0.34 l0.88 -2.48 q0.62 0.34 1.53 0.61 t2.23 0.27 z" fill="#FFFFFF"></path></g></svg>